<?xml version="1.0" encoding="UTF-8"?>
<svg xmlns="http://www.w3.org/2000/svg" xmlns:xlink="http://www.w3.org/1999/xlink" width="299pt" height="140pt" viewBox="0 0 299 140" version="1.1">
<defs>
<g id="surface102" clip-path="url(#clip2)">
<path style=" stroke:none;fill-rule:nonzero;fill:rgb(0%,0%,0%);fill-opacity:1;" d="M 6.734375 13.8125 L 9 13.8125 L 9 6.21875 L 6.53125 6.703125 L 6.53125 5.484375 L 8.984375 5 L 10.359375 5 L 10.359375 13.8125 L 12.609375 13.8125 L 12.609375 15 L 6.734375 15 Z M 5 15 "/>
<path style="fill:none;stroke-width:1;stroke-linecap:butt;stroke-linejoin:miter;stroke:rgb(0%,0%,100%);stroke-opacity:1;stroke-miterlimit:10;" d="M 0 0 L 0 0 "/>
<path style="fill:none;stroke-width:1;stroke-linecap:butt;stroke-linejoin:miter;stroke:rgb(0%,0%,100%);stroke-opacity:1;stroke-miterlimit:10;" d="M 0 0 L 0 0 "/>
<path style="fill:none;stroke-width:1;stroke-linecap:butt;stroke-linejoin:miter;stroke:rgb(0%,0%,100%);stroke-opacity:1;stroke-miterlimit:10;" d="M 0 0 L 0 0 "/>
<path style="fill:none;stroke-width:2;stroke-linecap:butt;stroke-linejoin:miter;stroke:rgb(0%,0%,0%);stroke-opacity:1;stroke-miterlimit:10;" d="M 0 0 L 19 0 L 19 20 L 0 20 Z M 0 0 "/>
</g>
<g id="surface103" clip-path="url(#clip3)">
<path style=" stroke:none;fill-rule:nonzero;fill:rgb(0%,0%,0%);fill-opacity:1;" d="M 12.6875 18.8125 L 17.5 18.8125 L 17.5 20 L 11.03125 20 L 11.03125 18.8125 C 11.550781 18.304688 12.265625 17.617188 13.171875 16.75 C 14.078125 15.886719 14.644531 15.328125 14.875 15.078125 C 15.3125 14.609375 15.617188 14.214844 15.796875 13.890625 C 15.972656 13.558594 16.0625 13.234375 16.0625 12.921875 C 16.0625 12.414062 15.867188 11.996094 15.484375 11.671875 C 15.109375 11.351562 14.613281 11.1875 14 11.1875 C 13.570312 11.1875 13.117188 11.261719 12.640625 11.40625 C 12.160156 11.542969 11.644531 11.757812 11.09375 12.046875 L 11.09375 10.6875 C 11.644531 10.460938 12.160156 10.289062 12.640625 10.171875 C 13.128906 10.058594 13.578125 10 13.984375 10 C 15.035156 10 15.875 10.25 16.5 10.75 C 17.132812 11.25 17.453125 11.929688 17.453125 12.78125 C 17.453125 13.179688 17.375 13.558594 17.21875 13.921875 C 17.0625 14.289062 16.773438 14.710938 16.359375 15.1875 C 16.242188 15.3125 15.878906 15.679688 15.265625 16.28125 C 14.660156 16.886719 13.800781 17.730469 12.6875 18.8125 Z M 10 20 "/>
<path style="fill:none;stroke-width:1;stroke-linecap:butt;stroke-linejoin:miter;stroke:rgb(0%,0%,100%);stroke-opacity:1;stroke-miterlimit:10;" d="M 0 0 L 0 0 " transform="matrix(1,0,0,1,-0,-0)"/>
<path style="fill:none;stroke-width:1;stroke-linecap:butt;stroke-linejoin:miter;stroke:rgb(0%,0%,100%);stroke-opacity:1;stroke-miterlimit:10;" d="M 0 0 L 0 0 " transform="matrix(1,0,0,1,-0,-0)"/>
<path style="fill:none;stroke-width:1;stroke-linecap:butt;stroke-linejoin:miter;stroke:rgb(0%,0%,100%);stroke-opacity:1;stroke-miterlimit:10;" d="M 0 0 L 0 0 " transform="matrix(1,0,0,1,-0,-0)"/>
<path style="fill:none;stroke-width:1;stroke-linecap:butt;stroke-linejoin:miter;stroke:rgb(0%,0%,100%);stroke-opacity:1;stroke-miterlimit:10;" d="M 0 0 L 0 0 " transform="matrix(1,0,0,1,-0,-0)"/>
<path style="fill:none;stroke-width:1;stroke-linecap:butt;stroke-linejoin:miter;stroke:rgb(0%,0%,100%);stroke-opacity:1;stroke-miterlimit:10;" d="M 0 0 L -10 0 L 0 0 " transform="matrix(1,0,0,1,-0,-0)"/>
<path style="fill:none;stroke-width:2;stroke-linecap:butt;stroke-linejoin:miter;stroke:rgb(0%,0%,0%);stroke-opacity:1;stroke-miterlimit:10;" d="M 0 0 L 39 0 L 39 30 L 0 30 Z M 0 0 " transform="matrix(1,0,0,1,-0,-0)"/>
</g>
<g id="surface104" clip-path="url(#clip4)">
<path style=" stroke:none;fill-rule:nonzero;fill:rgb(0%,0%,0%);fill-opacity:1;" d="M 10.6875 9.609375 C 11.34375 9.746094 11.851562 10.027344 12.21875 10.453125 C 12.59375 10.871094 12.78125 11.386719 12.78125 12 C 12.78125 12.960938 12.429688 13.699219 11.734375 14.21875 C 11.046875 14.742188 10.066406 15 8.796875 15 C 8.367188 15 7.925781 14.960938 7.46875 14.875 C 7.019531 14.78125 6.550781 14.652344 6.0625 14.484375 L 6.0625 13.1875 C 6.445312 13.398438 6.867188 13.554688 7.328125 13.65625 C 7.785156 13.761719 8.257812 13.8125 8.75 13.8125 C 9.613281 13.8125 10.269531 13.65625 10.71875 13.34375 C 11.175781 13.023438 11.40625 12.558594 11.40625 11.953125 C 11.40625 11.390625 11.191406 10.953125 10.765625 10.640625 C 10.347656 10.328125 9.765625 10.171875 9.015625 10.171875 L 7.828125 10.171875 L 7.828125 9.015625 L 9.078125 9.015625 C 9.753906 9.015625 10.269531 8.898438 10.625 8.65625 C 10.988281 8.417969 11.171875 8.074219 11.171875 7.625 C 11.171875 7.15625 10.984375 6.804688 10.609375 6.5625 C 10.242188 6.3125 9.710938 6.1875 9.015625 6.1875 C 8.640625 6.1875 8.234375 6.226562 7.796875 6.296875 C 7.367188 6.371094 6.894531 6.484375 6.375 6.640625 L 6.375 5.453125 C 6.894531 5.296875 7.382812 5.183594 7.84375 5.109375 C 8.300781 5.039062 8.734375 5 9.140625 5 C 10.191406 5 11.019531 5.226562 11.625 5.671875 C 12.238281 6.121094 12.546875 6.726562 12.546875 7.484375 C 12.546875 8.027344 12.382812 8.484375 12.0625 8.859375 C 11.738281 9.226562 11.28125 9.476562 10.6875 9.609375 Z M 5 15 "/>
<path style="fill:none;stroke-width:1;stroke-linecap:butt;stroke-linejoin:miter;stroke:rgb(0%,0%,100%);stroke-opacity:1;stroke-miterlimit:10;" d="M 0 0 L 0 0 " transform="matrix(1,0,0,1,-0,0)"/>
<path style="fill:none;stroke-width:2;stroke-linecap:butt;stroke-linejoin:miter;stroke:rgb(0%,0%,0%);stroke-opacity:1;stroke-miterlimit:10;" d="M 0 0 L 19 0 L 19 20 L 0 20 Z M 0 0 " transform="matrix(1,0,0,1,-0,0)"/>
</g>
<g id="surface108" clip-path="url(#clip1)">
<path style=" stroke:none;fill-rule:nonzero;fill:rgb(0%,0%,0%);fill-opacity:1;" d="M 9.78125 9.84375 L 7.90625 15.015625 L 11.671875 15.015625 Z M 9 9 L 10.578125 9 L 14.46875 19 L 13.03125 19 L 12.09375 16.171875 L 7.5 16.171875 L 6.5625 19 L 5.109375 19 Z M 25.203125 11.421875 L 25.203125 12.609375 C 24.847656 12.433594 24.476562 12.304688 24.09375 12.21875 C 23.707031 12.125 23.3125 12.078125 22.90625 12.078125 C 22.28125 12.078125 21.8125 12.171875 21.5 12.359375 C 21.1875 12.546875 21.03125 12.835938 21.03125 13.21875 C 21.03125 13.5 21.140625 13.726562 21.359375 13.890625 C 21.585938 14.058594 22.039062 14.21875 22.71875 14.375 L 23.140625 14.46875 C 24.035156 14.65625 24.671875 14.921875 25.046875 15.265625 C 25.421875 15.609375 25.609375 16.089844 25.609375 16.703125 C 25.609375 17.414062 25.328125 17.976562 24.765625 18.390625 C 24.203125 18.796875 23.429688 19 22.453125 19 C 22.035156 19 21.601562 18.960938 21.15625 18.875 C 20.71875 18.792969 20.253906 18.671875 19.765625 18.515625 L 19.765625 17.203125 C 20.222656 17.445312 20.675781 17.625 21.125 17.75 C 21.582031 17.867188 22.03125 17.921875 22.46875 17.921875 C 23.0625 17.921875 23.515625 17.824219 23.828125 17.625 C 24.148438 17.429688 24.3125 17.140625 24.3125 16.765625 C 24.3125 16.433594 24.195312 16.179688 23.96875 16 C 23.738281 15.8125 23.234375 15.640625 22.453125 15.484375 L 22.015625 15.375 C 21.242188 15.210938 20.679688 14.960938 20.328125 14.625 C 19.984375 14.28125 19.8125 13.820312 19.8125 13.234375 C 19.8125 12.527344 20.066406 11.980469 20.578125 11.59375 C 21.085938 11.199219 21.8125 11 22.75 11 C 23.21875 11 23.65625 11.039062 24.0625 11.109375 C 24.476562 11.183594 24.859375 11.289062 25.203125 11.421875 Z M 27.1875 15.71875 L 27.1875 11 L 28.453125 11 L 28.453125 15.8125 C 28.453125 16.574219 28.59375 17.148438 28.875 17.53125 C 29.15625 17.90625 29.578125 18.09375 30.140625 18.09375 C 30.816406 18.09375 31.351562 17.871094 31.75 17.421875 C 32.144531 16.964844 32.34375 16.34375 32.34375 15.5625 L 32.34375 11 L 33.609375 11 L 33.609375 19 L 32.34375 19 L 32.34375 17.796875 C 32.039062 18.203125 31.6875 18.507812 31.28125 18.703125 C 30.875 18.902344 30.40625 19 29.875 19 C 29 19 28.332031 18.726562 27.875 18.171875 C 27.414062 17.609375 27.1875 16.792969 27.1875 15.71875 Z M 30.359375 11 Z M 41.8125 15 C 41.8125 14.09375 41.617188 13.382812 41.234375 12.859375 C 40.859375 12.339844 40.335938 12.078125 39.671875 12.078125 C 39.003906 12.078125 38.476562 12.339844 38.09375 12.859375 C 37.71875 13.382812 37.53125 14.09375 37.53125 15 C 37.53125 15.90625 37.71875 16.621094 38.09375 17.140625 C 38.476562 17.664062 39.003906 17.921875 39.671875 17.921875 C 40.335938 17.921875 40.859375 17.664062 41.234375 17.140625 C 41.617188 16.621094 41.8125 15.90625 41.8125 15 Z M 37.53125 12.375 C 37.800781 11.90625 38.132812 11.5625 38.53125 11.34375 C 38.9375 11.117188 39.421875 11 39.984375 11 C 40.910156 11 41.664062 11.371094 42.25 12.109375 C 42.832031 12.839844 43.125 13.804688 43.125 15 C 43.125 16.199219 42.832031 17.167969 42.25 17.90625 C 41.664062 18.636719 40.910156 19 39.984375 19 C 39.421875 19 38.9375 18.890625 38.53125 18.671875 C 38.132812 18.445312 37.800781 18.09375 37.53125 17.625 L 37.53125 19 L 36.265625 19 L 36.265625 8 L 37.53125 8 Z M 45.3125 11 L 46.578125 11 L 46.578125 19.109375 C 46.578125 20.117188 46.390625 20.851562 46.015625 21.3125 C 45.648438 21.769531 45.050781 22 44.21875 22 L 43.75 22 L 43.75 20.90625 L 44.078125 20.90625 C 44.554688 20.90625 44.878906 20.789062 45.046875 20.5625 C 45.222656 20.332031 45.3125 19.851562 45.3125 19.125 Z M 45.3125 8 L 46.578125 8 L 46.578125 9.625 L 45.3125 9.625 Z M 55.875 14.4375 L 55.875 15 L 50.078125 15 C 50.140625 15.949219 50.398438 16.671875 50.859375 17.171875 C 51.328125 17.664062 51.976562 17.90625 52.8125 17.90625 C 53.300781 17.90625 53.769531 17.84375 54.21875 17.71875 C 54.675781 17.585938 55.128906 17.386719 55.578125 17.125 L 55.578125 18.390625 C 55.117188 18.578125 54.648438 18.730469 54.171875 18.84375 C 53.703125 18.949219 53.226562 19 52.75 19 C 51.519531 19 50.546875 18.648438 49.828125 17.9375 C 49.117188 17.230469 48.765625 16.273438 48.765625 15.0625 C 48.765625 13.8125 49.101562 12.824219 49.78125 12.09375 C 50.457031 11.367188 51.375 11 52.53125 11 C 53.5625 11 54.375 11.308594 54.96875 11.921875 C 55.570312 12.539062 55.875 13.375 55.875 14.4375 Z M 54.609375 14 C 54.597656 13.417969 54.40625 12.953125 54.03125 12.609375 C 53.65625 12.265625 53.160156 12.09375 52.546875 12.09375 C 51.835938 12.09375 51.269531 12.261719 50.84375 12.59375 C 50.425781 12.917969 50.1875 13.386719 50.125 14 Z M 63.828125 11.484375 L 63.828125 12.671875 C 63.472656 12.484375 63.113281 12.34375 62.75 12.25 C 62.394531 12.148438 62.035156 12.09375 61.671875 12.09375 C 60.859375 12.09375 60.222656 12.351562 59.765625 12.859375 C 59.316406 13.371094 59.09375 14.085938 59.09375 15 C 59.09375 15.917969 59.316406 16.632812 59.765625 17.140625 C 60.222656 17.652344 60.859375 17.90625 61.671875 17.90625 C 62.035156 17.90625 62.394531 17.859375 62.75 17.765625 C 63.113281 17.671875 63.472656 17.527344 63.828125 17.328125 L 63.828125 18.5 C 63.472656 18.667969 63.109375 18.792969 62.734375 18.875 C 62.359375 18.960938 61.960938 19 61.546875 19 C 60.390625 19 59.46875 18.640625 58.78125 17.921875 C 58.101562 17.203125 57.765625 16.230469 57.765625 15 C 57.765625 13.761719 58.109375 12.789062 58.796875 12.078125 C 59.484375 11.359375 60.425781 11 61.625 11 C 62.007812 11 62.382812 11.042969 62.75 11.125 C 63.125 11.210938 63.484375 11.328125 63.828125 11.484375 Z M 67.5625 9 L 67.5625 11 L 70.15625 11 L 70.15625 12 L 67.5625 12 L 67.5625 16.375 C 67.5625 17.03125 67.644531 17.453125 67.8125 17.640625 C 67.988281 17.828125 68.335938 17.921875 68.859375 17.921875 L 70.15625 17.921875 L 70.15625 19 L 68.859375 19 C 67.890625 19 67.21875 18.8125 66.84375 18.4375 C 66.476562 18.054688 66.296875 17.355469 66.296875 16.34375 L 66.296875 12 L 65.375 12 L 65.375 11 L 66.296875 11 L 66.296875 9 Z M 78.28125 12.09375 C 77.613281 12.09375 77.082031 12.355469 76.6875 12.875 C 76.289062 13.398438 76.09375 14.105469 76.09375 15 C 76.09375 15.898438 76.285156 16.605469 76.671875 17.125 C 77.066406 17.648438 77.601562 17.90625 78.28125 17.90625 C 78.957031 17.90625 79.488281 17.648438 79.875 17.125 C 80.269531 16.605469 80.46875 15.898438 80.46875 15 C 80.46875 14.105469 80.269531 13.398438 79.875 12.875 C 79.488281 12.355469 78.957031 12.09375 78.28125 12.09375 Z M 78.28125 11 C 79.375 11 80.234375 11.355469 80.859375 12.0625 C 81.484375 12.773438 81.796875 13.75 81.796875 15 C 81.796875 16.242188 81.484375 17.21875 80.859375 17.9375 C 80.234375 18.648438 79.375 19 78.28125 19 C 77.1875 19 76.328125 18.648438 75.703125 17.9375 C 75.078125 17.21875 74.765625 16.242188 74.765625 15 C 74.765625 13.75 75.078125 12.773438 75.703125 12.0625 C 76.328125 11.355469 77.1875 11 78.28125 11 Z M 88.75 12.203125 C 88.613281 12.121094 88.460938 12.058594 88.296875 12.015625 C 88.128906 11.976562 87.945312 11.953125 87.75 11.953125 C 87.03125 11.953125 86.476562 12.199219 86.09375 12.6875 C 85.71875 13.167969 85.53125 13.867188 85.53125 14.78125 L 85.53125 19 L 84.265625 19 L 84.265625 11 L 85.53125 11 L 85.53125 12.21875 C 85.800781 11.804688 86.144531 11.496094 86.5625 11.296875 C 86.988281 11.101562 87.503906 11 88.109375 11 C 88.203125 11 88.300781 10.996094 88.40625 10.984375 C 88.507812 10.964844 88.625 10.933594 88.75 10.890625 Z M 99.203125 11.421875 L 99.203125 12.609375 C 98.847656 12.433594 98.476562 12.304688 98.09375 12.21875 C 97.707031 12.125 97.3125 12.078125 96.90625 12.078125 C 96.28125 12.078125 95.8125 12.171875 95.5 12.359375 C 95.1875 12.546875 95.03125 12.835938 95.03125 13.21875 C 95.03125 13.5 95.140625 13.726562 95.359375 13.890625 C 95.585938 14.058594 96.039062 14.21875 96.71875 14.375 L 97.140625 14.46875 C 98.035156 14.65625 98.671875 14.921875 99.046875 15.265625 C 99.421875 15.609375 99.609375 16.089844 99.609375 16.703125 C 99.609375 17.414062 99.328125 17.976562 98.765625 18.390625 C 98.203125 18.796875 97.429688 19 96.453125 19 C 96.035156 19 95.601562 18.960938 95.15625 18.875 C 94.71875 18.792969 94.253906 18.671875 93.765625 18.515625 L 93.765625 17.203125 C 94.222656 17.445312 94.675781 17.625 95.125 17.75 C 95.582031 17.867188 96.03125 17.921875 96.46875 17.921875 C 97.0625 17.921875 97.515625 17.824219 97.828125 17.625 C 98.148438 17.429688 98.3125 17.140625 98.3125 16.765625 C 98.3125 16.433594 98.195312 16.179688 97.96875 16 C 97.738281 15.8125 97.234375 15.640625 96.453125 15.484375 L 96.015625 15.375 C 95.242188 15.210938 94.679688 14.960938 94.328125 14.625 C 93.984375 14.28125 93.8125 13.820312 93.8125 13.234375 C 93.8125 12.527344 94.066406 11.980469 94.578125 11.59375 C 95.085938 11.199219 95.8125 11 96.75 11 C 97.21875 11 97.65625 11.039062 98.0625 11.109375 C 98.476562 11.183594 98.859375 11.289062 99.203125 11.421875 Z M 104.28125 12.09375 C 103.613281 12.09375 103.082031 12.355469 102.6875 12.875 C 102.289062 13.398438 102.09375 14.105469 102.09375 15 C 102.09375 15.898438 102.285156 16.605469 102.671875 17.125 C 103.066406 17.648438 103.601562 17.90625 104.28125 17.90625 C 104.957031 17.90625 105.488281 17.648438 105.875 17.125 C 106.269531 16.605469 106.46875 15.898438 106.46875 15 C 106.46875 14.105469 106.269531 13.398438 105.875 12.875 C 105.488281 12.355469 104.957031 12.09375 104.28125 12.09375 Z M 104.28125 11 C 105.375 11 106.234375 11.355469 106.859375 12.0625 C 107.484375 12.773438 107.796875 13.75 107.796875 15 C 107.796875 16.242188 107.484375 17.21875 106.859375 17.9375 C 106.234375 18.648438 105.375 19 104.28125 19 C 103.1875 19 102.328125 18.648438 101.703125 17.9375 C 101.078125 17.21875 100.765625 16.242188 100.765625 15 C 100.765625 13.75 101.078125 12.773438 101.703125 12.0625 C 102.328125 11.355469 103.1875 11 104.28125 11 Z M 116.28125 12.6875 C 116.59375 12.117188 116.96875 11.695312 117.40625 11.421875 C 117.84375 11.140625 118.359375 11 118.953125 11 C 119.753906 11 120.367188 11.289062 120.796875 11.859375 C 121.234375 12.433594 121.453125 13.242188 121.453125 14.28125 L 121.453125 19 L 120.1875 19 L 120.1875 14.328125 C 120.1875 13.578125 120.054688 13.027344 119.796875 12.671875 C 119.535156 12.308594 119.140625 12.125 118.609375 12.125 C 117.953125 12.125 117.4375 12.34375 117.0625 12.78125 C 116.6875 13.21875 116.5 13.824219 116.5 14.59375 L 116.5 19 L 115.234375 19 L 115.234375 14.328125 C 115.234375 13.578125 115.101562 13.027344 114.84375 12.671875 C 114.582031 12.308594 114.179688 12.125 113.640625 12.125 C 112.992188 12.125 112.476562 12.351562 112.09375 12.796875 C 111.71875 13.234375 111.53125 13.835938 111.53125 14.59375 L 111.53125 19 L 110.265625 19 L 110.265625 11 L 111.53125 11 L 111.53125 12.40625 C 111.820312 11.929688 112.164062 11.574219 112.5625 11.34375 C 112.96875 11.117188 113.445312 11 114 11 C 114.550781 11 115.019531 11.148438 115.40625 11.4375 C 115.800781 11.730469 116.09375 12.148438 116.28125 12.6875 Z M 130.875 14.4375 L 130.875 15 L 125.078125 15 C 125.140625 15.949219 125.398438 16.671875 125.859375 17.171875 C 126.328125 17.664062 126.976562 17.90625 127.8125 17.90625 C 128.300781 17.90625 128.769531 17.84375 129.21875 17.71875 C 129.675781 17.585938 130.128906 17.386719 130.578125 17.125 L 130.578125 18.390625 C 130.117188 18.578125 129.648438 18.730469 129.171875 18.84375 C 128.703125 18.949219 128.226562 19 127.75 19 C 126.519531 19 125.546875 18.648438 124.828125 17.9375 C 124.117188 17.230469 123.765625 16.273438 123.765625 15.0625 C 123.765625 13.8125 124.101562 12.824219 124.78125 12.09375 C 125.457031 11.367188 126.375 11 127.53125 11 C 128.5625 11 129.375 11.308594 129.96875 11.921875 C 130.570312 12.539062 130.875 13.375 130.875 14.4375 Z M 129.609375 14 C 129.597656 13.417969 129.40625 12.953125 129.03125 12.609375 C 128.65625 12.265625 128.160156 12.09375 127.546875 12.09375 C 126.835938 12.09375 126.269531 12.261719 125.84375 12.59375 C 125.425781 12.917969 125.1875 13.386719 125.125 14 Z M 137.265625 8 L 138.53125 8 L 138.53125 14.453125 L 142.296875 11 L 143.890625 11 L 139.828125 14.75 L 144.0625 19 L 142.421875 19 L 138.53125 15.09375 L 138.53125 19 L 137.265625 19 Z M 145.3125 11 L 146.578125 11 L 146.578125 19 L 145.3125 19 Z M 145.3125 8 L 146.578125 8 L 146.578125 9.625 L 145.3125 9.625 Z M 155.6875 14.28125 L 155.6875 19 L 154.421875 19 L 154.421875 14.203125 C 154.421875 13.445312 154.28125 12.875 154 12.5 C 153.71875 12.125 153.296875 11.9375 152.734375 11.9375 C 152.054688 11.9375 151.519531 12.164062 151.125 12.609375 C 150.726562 13.058594 150.53125 13.679688 150.53125 14.46875 L 150.53125 19 L 149.265625 19 L 149.265625 11 L 150.53125 11 L 150.53125 12.234375 C 150.832031 11.828125 151.1875 11.523438 151.59375 11.3125 C 152.007812 11.105469 152.484375 11 153.015625 11 C 153.890625 11 154.550781 11.28125 155 11.84375 C 155.457031 12.398438 155.6875 13.210938 155.6875 14.28125 Z M 163.359375 12.375 L 163.359375 8 L 164.609375 8 L 164.609375 19 L 163.359375 19 L 163.359375 17.828125 C 163.097656 18.226562 162.765625 18.523438 162.359375 18.71875 C 161.953125 18.90625 161.46875 19 160.90625 19 C 159.976562 19 159.222656 18.636719 158.640625 17.90625 C 158.054688 17.167969 157.765625 16.199219 157.765625 15 C 157.765625 13.804688 158.054688 12.839844 158.640625 12.109375 C 159.222656 11.371094 159.976562 11 160.90625 11 C 161.46875 11 161.953125 11.117188 162.359375 11.34375 C 162.765625 11.5625 163.097656 11.90625 163.359375 12.375 Z M 159.078125 15.109375 C 159.078125 16.046875 159.265625 16.789062 159.640625 17.328125 C 160.023438 17.859375 160.550781 18.125 161.21875 18.125 C 161.875 18.125 162.394531 17.859375 162.78125 17.328125 C 163.164062 16.789062 163.359375 16.046875 163.359375 15.109375 C 163.359375 14.164062 163.164062 13.421875 162.78125 12.890625 C 162.394531 12.351562 161.875 12.078125 161.21875 12.078125 C 160.550781 12.078125 160.023438 12.351562 159.640625 12.890625 C 159.265625 13.421875 159.078125 14.164062 159.078125 15.109375 Z M 174.28125 12.09375 C 173.613281 12.09375 173.082031 12.355469 172.6875 12.875 C 172.289062 13.398438 172.09375 14.105469 172.09375 15 C 172.09375 15.898438 172.285156 16.605469 172.671875 17.125 C 173.066406 17.648438 173.601562 17.90625 174.28125 17.90625 C 174.957031 17.90625 175.488281 17.648438 175.875 17.125 C 176.269531 16.605469 176.46875 15.898438 176.46875 15 C 176.46875 14.105469 176.269531 13.398438 175.875 12.875 C 175.488281 12.355469 174.957031 12.09375 174.28125 12.09375 Z M 174.28125 11 C 175.375 11 176.234375 11.355469 176.859375 12.0625 C 177.484375 12.773438 177.796875 13.75 177.796875 15 C 177.796875 16.242188 177.484375 17.21875 176.859375 17.9375 C 176.234375 18.648438 175.375 19 174.28125 19 C 173.1875 19 172.328125 18.648438 171.703125 17.9375 C 171.078125 17.21875 170.765625 16.242188 170.765625 15 C 170.765625 13.75 171.078125 12.773438 171.703125 12.0625 C 172.328125 11.355469 173.1875 11 174.28125 11 Z M 184.203125 8 L 184.203125 9.0625 L 183 9.0625 C 182.539062 9.0625 182.222656 9.15625 182.046875 9.34375 C 181.878906 9.523438 181.796875 9.851562 181.796875 10.328125 L 181.796875 11 L 183.859375 11 L 183.859375 12 L 181.796875 12 L 181.796875 19 L 180.53125 19 L 180.53125 12 L 179.328125 12 L 179.328125 11 L 180.53125 11 L 180.53125 10.453125 C 180.53125 9.601562 180.726562 8.980469 181.125 8.59375 C 181.519531 8.199219 182.144531 8 183 8 Z M 195.6875 14.28125 L 195.6875 19 L 194.421875 19 L 194.421875 14.203125 C 194.421875 13.445312 194.28125 12.875 194 12.5 C 193.71875 12.125 193.296875 11.9375 192.734375 11.9375 C 192.054688 11.9375 191.519531 12.164062 191.125 12.609375 C 190.726562 13.058594 190.53125 13.679688 190.53125 14.46875 L 190.53125 19 L 189.265625 19 L 189.265625 11 L 190.53125 11 L 190.53125 12.234375 C 190.832031 11.828125 191.1875 11.523438 191.59375 11.3125 C 192.007812 11.105469 192.484375 11 193.015625 11 C 193.890625 11 194.550781 11.28125 195 11.84375 C 195.457031 12.398438 195.6875 13.210938 195.6875 14.28125 Z M 198.3125 11 L 199.578125 11 L 199.578125 19 L 198.3125 19 Z M 198.3125 8 L 199.578125 8 L 199.578125 9.625 L 198.3125 9.625 Z M 206.203125 8 L 206.203125 9.0625 L 205 9.0625 C 204.539062 9.0625 204.222656 9.15625 204.046875 9.34375 C 203.878906 9.523438 203.796875 9.851562 203.796875 10.328125 L 203.796875 11 L 205.859375 11 L 205.859375 12 L 203.796875 12 L 203.796875 19 L 202.53125 19 L 202.53125 12 L 201.328125 12 L 201.328125 11 L 202.53125 11 L 202.53125 10.453125 C 202.53125 9.601562 202.726562 8.980469 203.125 8.59375 C 203.519531 8.199219 204.144531 8 205 8 Z M 208.5625 9 L 208.5625 11 L 211.15625 11 L 211.15625 12 L 208.5625 12 L 208.5625 16.375 C 208.5625 17.03125 208.644531 17.453125 208.8125 17.640625 C 208.988281 17.828125 209.335938 17.921875 209.859375 17.921875 L 211.15625 17.921875 L 211.15625 19 L 209.859375 19 C 208.890625 19 208.21875 18.8125 207.84375 18.4375 C 207.476562 18.054688 207.296875 17.355469 207.296875 16.34375 L 207.296875 12 L 206.375 12 L 206.375 11 L 207.296875 11 L 207.296875 9 Z M 215.5 19.703125 C 215.144531 20.660156 214.796875 21.28125 214.453125 21.5625 C 214.117188 21.851562 213.671875 22 213.109375 22 L 212.109375 22 L 212.109375 20.921875 L 212.84375 20.921875 C 213.1875 20.921875 213.453125 20.832031 213.640625 20.65625 C 213.835938 20.488281 214.050781 20.085938 214.28125 19.453125 L 214.515625 18.859375 L 211.421875 11 L 212.75 11 L 215.140625 17.25 L 217.53125 11 L 218.875 11 Z M 225.5625 9 L 225.5625 11 L 228.15625 11 L 228.15625 12 L 225.5625 12 L 225.5625 16.375 C 225.5625 17.03125 225.644531 17.453125 225.8125 17.640625 C 225.988281 17.828125 226.335938 17.921875 226.859375 17.921875 L 228.15625 17.921875 L 228.15625 19 L 226.859375 19 C 225.890625 19 225.21875 18.8125 224.84375 18.4375 C 224.476562 18.054688 224.296875 17.355469 224.296875 16.34375 L 224.296875 12 L 223.375 12 L 223.375 11 L 224.296875 11 L 224.296875 9 Z M 235.875 14.4375 L 235.875 15 L 230.078125 15 C 230.140625 15.949219 230.398438 16.671875 230.859375 17.171875 C 231.328125 17.664062 231.976562 17.90625 232.8125 17.90625 C 233.300781 17.90625 233.769531 17.84375 234.21875 17.71875 C 234.675781 17.585938 235.128906 17.386719 235.578125 17.125 L 235.578125 18.390625 C 235.117188 18.578125 234.648438 18.730469 234.171875 18.84375 C 233.703125 18.949219 233.226562 19 232.75 19 C 231.519531 19 230.546875 18.648438 229.828125 17.9375 C 229.117188 17.230469 228.765625 16.273438 228.765625 15.0625 C 228.765625 13.8125 229.101562 12.824219 229.78125 12.09375 C 230.457031 11.367188 231.375 11 232.53125 11 C 233.5625 11 234.375 11.308594 234.96875 11.921875 C 235.570312 12.539062 235.875 13.375 235.875 14.4375 Z M 234.609375 14 C 234.597656 13.417969 234.40625 12.953125 234.03125 12.609375 C 233.65625 12.265625 233.160156 12.09375 232.546875 12.09375 C 231.835938 12.09375 231.269531 12.261719 230.84375 12.59375 C 230.425781 12.917969 230.1875 13.386719 230.125 14 Z M 244.6875 11 L 241.921875 14.890625 L 244.828125 19 L 243.34375 19 L 241.109375 15.859375 L 238.890625 19 L 237.40625 19 L 240.375 14.8125 L 237.65625 11 L 239.140625 11 L 241.171875 13.84375 L 243.203125 11 Z M 247.5625 9 L 247.5625 11 L 250.15625 11 L 250.15625 12 L 247.5625 12 L 247.5625 16.375 C 247.5625 17.03125 247.644531 17.453125 247.8125 17.640625 C 247.988281 17.828125 248.335938 17.921875 248.859375 17.921875 L 250.15625 17.921875 L 250.15625 19 L 248.859375 19 C 247.890625 19 247.21875 18.8125 246.84375 18.4375 C 246.476562 18.054688 246.296875 17.355469 246.296875 16.34375 L 246.296875 12 L 245.375 12 L 245.375 11 L 246.296875 11 L 246.296875 9 Z M 251.5 17.234375 L 252.9375 17.234375 L 252.9375 19 L 251.5 19 Z M 6.375 20 L 12.828125 20 L 12.828125 21.1875 L 7.75 21.1875 L 7.75 24 L 12.609375 24 L 12.609375 25.1875 L 7.75 25.1875 L 7.75 28.8125 L 12.953125 28.8125 L 12.953125 30 L 6.375 30 Z M 14.421875 22 L 15.75 22 L 18.140625 28.71875 L 20.53125 22 L 21.875 22 L 19 30 L 17.28125 30 Z M 29.875 25.4375 L 29.875 26 L 24.078125 26 C 24.140625 26.949219 24.398438 27.671875 24.859375 28.171875 C 25.328125 28.664062 25.976562 28.90625 26.8125 28.90625 C 27.300781 28.90625 27.769531 28.84375 28.21875 28.71875 C 28.675781 28.585938 29.128906 28.386719 29.578125 28.125 L 29.578125 29.390625 C 29.117188 29.578125 28.648438 29.730469 28.171875 29.84375 C 27.703125 29.949219 27.226562 30 26.75 30 C 25.519531 30 24.546875 29.648438 23.828125 28.9375 C 23.117188 28.230469 22.765625 27.273438 22.765625 26.0625 C 22.765625 24.8125 23.101562 23.824219 23.78125 23.09375 C 24.457031 22.367188 25.375 22 26.53125 22 C 27.5625 22 28.375 22.308594 28.96875 22.921875 C 29.570312 23.539062 29.875 24.375 29.875 25.4375 Z M 28.609375 25 C 28.597656 24.417969 28.40625 23.953125 28.03125 23.609375 C 27.65625 23.265625 27.160156 23.09375 26.546875 23.09375 C 25.835938 23.09375 25.269531 23.261719 24.84375 23.59375 C 24.425781 23.917969 24.1875 24.386719 24.125 25 Z M 38.6875 25.28125 L 38.6875 30 L 37.421875 30 L 37.421875 25.203125 C 37.421875 24.445312 37.28125 23.875 37 23.5 C 36.71875 23.125 36.296875 22.9375 35.734375 22.9375 C 35.054688 22.9375 34.519531 23.164062 34.125 23.609375 C 33.726562 24.058594 33.53125 24.679688 33.53125 25.46875 L 33.53125 30 L 32.265625 30 L 32.265625 22 L 33.53125 22 L 33.53125 23.234375 C 33.832031 22.828125 34.1875 22.523438 34.59375 22.3125 C 35.007812 22.105469 35.484375 22 36.015625 22 C 36.890625 22 37.550781 22.28125 38 22.84375 C 38.457031 23.398438 38.6875 24.210938 38.6875 25.28125 Z M 51.28125 23.6875 C 51.59375 23.117188 51.96875 22.695312 52.40625 22.421875 C 52.84375 22.140625 53.359375 22 53.953125 22 C 54.753906 22 55.367188 22.289062 55.796875 22.859375 C 56.234375 23.433594 56.453125 24.242188 56.453125 25.28125 L 56.453125 30 L 55.1875 30 L 55.1875 25.328125 C 55.1875 24.578125 55.054688 24.027344 54.796875 23.671875 C 54.535156 23.308594 54.140625 23.125 53.609375 23.125 C 52.953125 23.125 52.4375 23.34375 52.0625 23.78125 C 51.6875 24.21875 51.5 24.824219 51.5 25.59375 L 51.5 30 L 50.234375 30 L 50.234375 25.328125 C 50.234375 24.578125 50.101562 24.027344 49.84375 23.671875 C 49.582031 23.308594 49.179688 23.125 48.640625 23.125 C 47.992188 23.125 47.476562 23.351562 47.09375 23.796875 C 46.71875 24.234375 46.53125 24.835938 46.53125 25.59375 L 46.53125 30 L 45.265625 30 L 45.265625 22 L 46.53125 22 L 46.53125 23.40625 C 46.820312 22.929688 47.164062 22.574219 47.5625 22.34375 C 47.96875 22.117188 48.445312 22 49 22 C 49.550781 22 50.019531 22.148438 50.40625 22.4375 C 50.800781 22.730469 51.09375 23.148438 51.28125 23.6875 Z M 59.1875 26.71875 L 59.1875 22 L 60.453125 22 L 60.453125 26.8125 C 60.453125 27.574219 60.59375 28.148438 60.875 28.53125 C 61.15625 28.90625 61.578125 29.09375 62.140625 29.09375 C 62.816406 29.09375 63.351562 28.871094 63.75 28.421875 C 64.144531 27.964844 64.34375 27.34375 64.34375 26.5625 L 64.34375 22 L 65.609375 22 L 65.609375 30 L 64.34375 30 L 64.34375 28.796875 C 64.039062 29.203125 63.6875 29.507812 63.28125 29.703125 C 62.875 29.902344 62.40625 30 61.875 30 C 61 30 60.332031 29.726562 59.875 29.171875 C 59.414062 28.609375 59.1875 27.792969 59.1875 26.71875 Z M 62.359375 22 Z M 68.3125 19 L 69.578125 19 L 69.578125 30 L 68.3125 30 Z M 73.5625 20 L 73.5625 22 L 76.15625 22 L 76.15625 23 L 73.5625 23 L 73.5625 27.375 C 73.5625 28.03125 73.644531 28.453125 73.8125 28.640625 C 73.988281 28.828125 74.335938 28.921875 74.859375 28.921875 L 76.15625 28.921875 L 76.15625 30 L 74.859375 30 C 73.890625 30 73.21875 29.8125 72.84375 29.4375 C 72.476562 29.054688 72.296875 28.355469 72.296875 27.34375 L 72.296875 23 L 71.375 23 L 71.375 22 L 72.296875 22 L 72.296875 20 Z M 77.3125 22 L 78.578125 22 L 78.578125 30 L 77.3125 30 Z M 77.3125 19 L 78.578125 19 L 78.578125 20.625 L 77.3125 20.625 Z M 85.3125 19 L 86.578125 19 L 86.578125 30 L 85.3125 30 Z M 89.3125 22 L 90.578125 22 L 90.578125 30 L 89.3125 30 Z M 89.3125 19 L 90.578125 19 L 90.578125 20.625 L 89.3125 20.625 Z M 99.6875 25.28125 L 99.6875 30 L 98.421875 30 L 98.421875 25.203125 C 98.421875 24.445312 98.28125 23.875 98 23.5 C 97.71875 23.125 97.296875 22.9375 96.734375 22.9375 C 96.054688 22.9375 95.519531 23.164062 95.125 23.609375 C 94.726562 24.058594 94.53125 24.679688 94.53125 25.46875 L 94.53125 30 L 93.265625 30 L 93.265625 22 L 94.53125 22 L 94.53125 23.234375 C 94.832031 22.828125 95.1875 22.523438 95.59375 22.3125 C 96.007812 22.105469 96.484375 22 97.015625 22 C 97.890625 22 98.550781 22.28125 99 22.84375 C 99.457031 23.398438 99.6875 24.210938 99.6875 25.28125 Z M 108.875 25.4375 L 108.875 26 L 103.078125 26 C 103.140625 26.949219 103.398438 27.671875 103.859375 28.171875 C 104.328125 28.664062 104.976562 28.90625 105.8125 28.90625 C 106.300781 28.90625 106.769531 28.84375 107.21875 28.71875 C 107.675781 28.585938 108.128906 28.386719 108.578125 28.125 L 108.578125 29.390625 C 108.117188 29.578125 107.648438 29.730469 107.171875 29.84375 C 106.703125 29.949219 106.226562 30 105.75 30 C 104.519531 30 103.546875 29.648438 102.828125 28.9375 C 102.117188 28.230469 101.765625 27.273438 101.765625 26.0625 C 101.765625 24.8125 102.101562 23.824219 102.78125 23.09375 C 103.457031 22.367188 104.375 22 105.53125 22 C 106.5625 22 107.375 22.308594 107.96875 22.921875 C 108.570312 23.539062 108.875 24.375 108.875 25.4375 Z M 107.609375 25 C 107.597656 24.417969 107.40625 23.953125 107.03125 23.609375 C 106.65625 23.265625 106.160156 23.09375 105.546875 23.09375 C 104.835938 23.09375 104.269531 23.261719 103.84375 23.59375 C 103.425781 23.917969 103.1875 24.386719 103.125 25 Z M 116.359375 23.375 L 116.359375 19 L 117.609375 19 L 117.609375 30 L 116.359375 30 L 116.359375 28.828125 C 116.097656 29.226562 115.765625 29.523438 115.359375 29.71875 C 114.953125 29.90625 114.46875 30 113.90625 30 C 112.976562 30 112.222656 29.636719 111.640625 28.90625 C 111.054688 28.167969 110.765625 27.199219 110.765625 26 C 110.765625 24.804688 111.054688 23.839844 111.640625 23.109375 C 112.222656 22.371094 112.976562 22 113.90625 22 C 114.46875 22 114.953125 22.117188 115.359375 22.34375 C 115.765625 22.5625 116.097656 22.90625 116.359375 23.375 Z M 112.078125 26.109375 C 112.078125 27.046875 112.265625 27.789062 112.640625 28.328125 C 113.023438 28.859375 113.550781 29.125 114.21875 29.125 C 114.875 29.125 115.394531 28.859375 115.78125 28.328125 C 116.164062 27.789062 116.359375 27.046875 116.359375 26.109375 C 116.359375 25.164062 116.164062 24.421875 115.78125 23.890625 C 115.394531 23.351562 114.875 23.078125 114.21875 23.078125 C 113.550781 23.078125 113.023438 23.351562 112.640625 23.890625 C 112.265625 24.421875 112.078125 25.164062 112.078125 26.109375 Z M 120.5 28.234375 L 121.9375 28.234375 L 121.9375 30 L 120.5 30 Z M 5 30 "/>
<use xlink:href="#surface102" transform="matrix(1,0,0,1,25,35)"/>
<use xlink:href="#surface103" transform="matrix(1,0,0,1,25,60)"/>
<use xlink:href="#surface104" transform="matrix(1,0,0,1,25,95)"/>
<path style="fill:none;stroke-width:1;stroke-linecap:butt;stroke-linejoin:miter;stroke:rgb(0%,0%,100%);stroke-opacity:1;stroke-miterlimit:10;" d="M 25 35 L 20 35 L 20 60 L 25 60 "/>
<path style="fill:none;stroke-width:1;stroke-linecap:butt;stroke-linejoin:miter;stroke:rgb(0%,0%,100%);stroke-opacity:1;stroke-miterlimit:10;" d="M 25 35 L 15 35 L 15 60 L 25 60 "/>
<path style="fill:none;stroke-width:1;stroke-linecap:butt;stroke-linejoin:miter;stroke:rgb(0%,0%,100%);stroke-opacity:1;stroke-miterlimit:10;" d="M 25 35 L 10 35 L 10 60 L 25 60 "/>
<path style="fill:none;stroke-width:1;stroke-linecap:butt;stroke-linejoin:miter;stroke:rgb(0%,0%,100%);stroke-opacity:1;stroke-miterlimit:10;" d="M 25 60 L 5 60 L 5 95 L 25 95 "/>
<path style="fill:none;stroke-width:2;stroke-linecap:butt;stroke-linejoin:miter;stroke:rgb(0%,0%,0%);stroke-opacity:1;stroke-miterlimit:10;" d="M 0 0 L 279 0 L 279 120 L 0 120 Z M 0 0 "/>
</g>
</defs>
<g id="surface105">
<rect x="0" y="0" width="299" height="140" style="fill:rgb(100%,100%,100%);fill-opacity:1;stroke:none;"/>
<use xlink:href="#surface108" transform="matrix(1,0,0,1,10,10)"/>
</g>
</svg>
